<?xml version="1.0" encoding="UTF-8"?>
<!DOCTYPE svg PUBLIC "-//W3C//DTD SVG 1.1//EN" "http://www.w3.org/Graphics/SVG/1.1/DTD/svg11.dtd">
<svg xmlns="http://www.w3.org/2000/svg" version="1.1" width="500px" height="500px" style="shape-rendering:geometricPrecision; text-rendering:geometricPrecision; image-rendering:optimizeQuality; fill-rule:evenodd; clip-rule:evenodd" xmlns:xlink="http://www.w3.org/1999/xlink">
<g><path style="opacity:1" fill="#9e356c" d="M 250.5,108.5 C 249.609,109.11 248.609,109.443 247.5,109.5C 248.221,107.618 249.221,107.285 250.5,108.5 Z"/></g>
<g><path style="opacity:1" fill="#f26e19" d="M 250.5,108.5 C 267.339,124.506 283.673,141.006 299.5,158C 283.673,174.994 267.339,191.494 250.5,207.5C 249.391,207.443 248.391,207.11 247.5,206.5C 237.5,197.167 227.833,187.5 218.5,177.5C 216.1,174.097 213.1,171.43 209.5,169.5C 209.167,168.833 208.833,168.167 208.5,167.5C 206.431,164.427 203.764,162.094 200.5,160.5C 200.5,160.167 200.5,159.833 200.5,159.5C 201.167,157.833 201.833,156.167 202.5,154.5C 202.833,153.5 203.5,152.833 204.5,152.5C 209.167,149.833 212.833,146.167 215.5,141.5C 216.239,141.631 216.906,141.464 217.5,141C 225.094,133.911 232.094,126.411 238.5,118.5C 241.167,115.167 244.167,112.167 247.5,109.5C 248.609,109.443 249.609,109.11 250.5,108.5 Z M 248.5,140.5 C 254.812,146.146 260.812,152.146 266.5,158.5C 261.167,164.5 255.5,170.167 249.5,175.5C 243.5,170.167 237.833,164.5 232.5,158.5C 238.256,152.752 243.589,146.752 248.5,140.5 Z"/></g>
<g><path style="opacity:1" fill="#c14b51" d="M 238.5,118.5 C 232.094,126.411 225.094,133.911 217.5,141C 216.906,141.464 216.239,141.631 215.5,141.5C 222.833,133.5 230.5,125.833 238.5,118.5 Z"/></g>
<g><path style="opacity:0.158" fill="#441e8b" d="M 151.5,140.5 C 112.996,140.168 74.663,140.501 36.5,141.5C 35.9569,141.44 35.6236,141.107 35.5,140.5C 74.3312,139.169 112.998,139.169 151.5,140.5 Z"/></g>
<g><path style="opacity:0.164" fill="#441e8b" d="M 347.5,140.5 C 386.002,139.169 424.669,139.169 463.5,140.5C 463.376,141.107 463.043,141.44 462.5,141.5C 424.337,140.501 386.004,140.168 347.5,140.5 Z"/></g>
<g><path style="opacity:1" fill="#f06c1d" d="M 151.5,140.5 C 158.07,146.614 164.403,152.947 170.5,159.5C 170.5,160.833 171.167,161.5 172.5,161.5C 172.938,161.435 173.272,161.601 173.5,162C 172.737,162.944 171.737,163.444 170.5,163.5C 132.932,163.64 95.2651,163.473 57.5,163C 50.2974,155.965 43.2974,148.798 36.5,141.5C 74.663,140.501 112.996,140.168 151.5,140.5 Z"/></g>
<g><path style="opacity:1" fill="#f7720b" d="M 347.5,140.5 C 386.004,140.168 424.337,140.501 462.5,141.5C 455.833,148.833 448.833,155.833 441.5,162.5C 403.499,162.667 365.499,162.5 327.5,162C 328.252,161.329 328.586,160.496 328.5,159.5C 330.027,159.573 331.027,158.906 331.5,157.5C 331.328,156.508 331.662,155.842 332.5,155.5C 334.5,155.5 335.5,154.5 335.5,152.5C 337.833,152.167 339.167,150.833 339.5,148.5C 341.833,148.167 343.167,146.833 343.5,144.5C 345.5,144.5 346.5,143.5 346.5,141.5C 346.5,140.833 346.833,140.5 347.5,140.5 Z"/></g>
<g><path style="opacity:1" fill="#9e3869" d="M 346.5,141.5 C 346.5,143.5 345.5,144.5 343.5,144.5C 344.167,143.167 345.167,142.167 346.5,141.5 Z"/></g>
<g><path style="opacity:1" fill="#c34c52" d="M 215.5,141.5 C 212.833,146.167 209.167,149.833 204.5,152.5C 207.833,148.5 211.5,144.833 215.5,141.5 Z"/></g>
<g><path style="opacity:1" fill="#a73c64" d="M 343.5,144.5 C 343.167,146.833 341.833,148.167 339.5,148.5C 340.5,146.833 341.833,145.5 343.5,144.5 Z"/></g>
<g><path style="opacity:1" fill="#a73c64" d="M 339.5,148.5 C 339.167,150.833 337.833,152.167 335.5,152.5C 336.5,150.833 337.833,149.5 339.5,148.5 Z"/></g>
<g><path style="opacity:1" fill="#9e3869" d="M 335.5,152.5 C 335.5,154.5 334.5,155.5 332.5,155.5C 333.167,154.167 334.167,153.167 335.5,152.5 Z"/></g>
<g><path style="opacity:1" fill="#ba4857" d="M 202.5,154.5 C 201.833,156.167 201.167,157.833 200.5,159.5C 199.711,159.217 199.044,158.717 198.5,158C 199.705,156.624 201.038,155.458 202.5,154.5 Z"/></g>
<g><path style="opacity:1" fill="#a33c64" d="M 331.5,157.5 C 331.027,158.906 330.027,159.573 328.5,159.5C 328.973,158.094 329.973,157.427 331.5,157.5 Z"/></g>
<g><path style="opacity:0.153" fill="#31159a" d="M 170.5,159.5 C 171.5,159.833 172.167,160.5 172.5,161.5C 171.167,161.5 170.5,160.833 170.5,159.5 Z"/></g>
<g><path style="opacity:0.533" fill="#772b74" d="M 200.5,160.5 C 203.764,162.094 206.431,164.427 208.5,167.5C 205.236,165.906 202.569,163.573 200.5,160.5 Z"/></g>
<g><path style="opacity:0.026" fill="#34129d" d="M 328.5,159.5 C 328.586,160.496 328.252,161.329 327.5,162C 365.499,162.5 403.499,162.667 441.5,162.5C 403.336,163.664 365.002,163.831 326.5,163C 325.828,161.421 326.495,160.254 328.5,159.5 Z"/></g>
<g><path style="opacity:0.545" fill="#772b74" d="M 209.5,169.5 C 213.1,171.43 216.1,174.097 218.5,177.5C 214.9,175.57 211.9,172.903 209.5,169.5 Z"/></g>
<g><path style="opacity:1" fill="#ef6b20" d="M 207.5,196.5 C 207.5,197.833 208.167,198.5 209.5,198.5C 210.5,198.833 211.167,199.5 211.5,200.5C 211.5,201.833 212.167,202.5 213.5,202.5C 219.167,207.5 224.5,212.833 229.5,218.5C 229.5,219.833 230.167,220.5 231.5,220.5C 232.5,220.833 233.167,221.5 233.5,222.5C 233.5,223.833 234.167,224.5 235.5,224.5C 236.5,224.833 237.167,225.5 237.5,226.5C 237.5,227.833 238.167,228.5 239.5,228.5C 242.957,231.406 245.957,234.739 248.5,238.5C 249.623,239.757 250.289,239.424 250.5,237.5C 251.5,235.833 252.833,234.5 254.5,233.5C 256.027,233.573 257.027,232.906 257.5,231.5C 257.328,230.508 257.662,229.842 258.5,229.5C 260.5,229.5 261.5,228.5 261.5,226.5C 263.833,223.5 266.5,220.833 269.5,218.5C 271.5,218.5 272.5,217.5 272.5,215.5C 274.833,212.5 277.5,209.833 280.5,207.5C 282.5,207.5 283.5,206.5 283.5,204.5C 285.167,202.167 287.167,200.167 289.5,198.5C 290.833,198.5 291.5,197.833 291.5,196.5C 293.027,196.573 294.027,195.906 294.5,194.5C 294.328,193.508 294.662,192.842 295.5,192.5C 297.5,192.5 298.5,191.5 298.5,189.5C 299.96,187.537 301.627,185.704 303.5,184C 342.31,183.007 380.977,183.34 419.5,185C 412.167,192.333 404.833,199.667 397.5,207C 369.502,207.5 341.502,207.667 313.5,207.5C 312.167,207.5 311.5,208.167 311.5,209.5C 311.167,210.5 310.5,211.167 309.5,211.5C 308.167,211.5 307.5,212.167 307.5,213.5C 305.833,215.167 304.167,216.833 302.5,218.5C 301.167,218.5 300.5,219.167 300.5,220.5C 300.167,221.5 299.5,222.167 298.5,222.5C 297.167,222.5 296.5,223.167 296.5,224.5C 296.167,225.5 295.5,226.167 294.5,226.5C 293.167,226.5 292.5,227.167 292.5,228.5C 292.5,229.167 292.167,229.5 291.5,229.5C 290.167,229.5 289.5,230.167 289.5,231.5C 289.167,232.5 288.5,233.167 287.5,233.5C 286.167,233.5 285.5,234.167 285.5,235.5C 285.167,236.5 284.5,237.167 283.5,237.5C 282.167,237.5 281.5,238.167 281.5,239.5C 279.833,241.167 278.167,242.833 276.5,244.5C 275.167,244.5 274.5,245.167 274.5,246.5C 274.167,247.5 273.5,248.167 272.5,248.5C 271.167,248.5 270.5,249.167 270.5,250.5C 268.938,251.785 267.604,253.285 266.5,255C 269.045,257.9 271.711,260.734 274.5,263.5C 274.5,264.833 275.167,265.5 276.5,265.5C 277.5,265.833 278.167,266.5 278.5,267.5C 278.5,268.833 279.167,269.5 280.5,269.5C 281.167,269.5 281.5,269.833 281.5,270.5C 281.5,271.833 282.167,272.5 283.5,272.5C 284.5,272.833 285.167,273.5 285.5,274.5C 285.5,275.833 286.167,276.5 287.5,276.5C 294.16,282.994 300.66,289.66 307,296.5C 307.667,317.167 307.667,337.833 307,358.5C 299.466,365.174 292.133,372.174 285,379.5C 284.601,379.272 284.435,378.938 284.5,378.5C 284.667,353.831 284.5,329.164 284,304.5C 283.329,303.748 282.496,303.414 281.5,303.5C 273.5,296.167 265.833,288.5 258.5,280.5C 258.5,278.5 257.5,277.5 255.5,277.5C 253.203,275.706 251.037,273.706 249,271.5C 248.623,272.942 247.79,273.942 246.5,274.5C 245.167,274.5 244.5,275.167 244.5,276.5C 242.833,278.167 241.167,279.833 239.5,281.5C 238.167,281.5 237.5,282.167 237.5,283.5C 237.167,284.5 236.5,285.167 235.5,285.5C 234.167,285.5 233.5,286.167 233.5,287.5C 233.167,288.5 232.5,289.167 231.5,289.5C 230.167,289.5 229.5,290.167 229.5,291.5C 229.5,292.167 229.167,292.5 228.5,292.5C 227.167,292.5 226.5,293.167 226.5,294.5C 226.167,295.5 225.5,296.167 224.5,296.5C 223.167,296.5 222.5,297.167 222.5,298.5C 222.167,299.5 221.5,300.167 220.5,300.5C 219.167,300.5 218.5,301.167 218.5,302.5C 218.189,303.478 217.522,304.145 216.5,304.5C 215.992,329.64 215.158,354.64 214,379.5C 206.875,372.217 199.542,365.217 192,358.5C 191.333,337.5 191.333,316.5 192,295.5C 193.359,294.635 194.526,293.635 195.5,292.5C 197.5,292.5 198.5,291.5 198.5,289.5C 200.833,286.5 203.5,283.833 206.5,281.5C 208.5,281.5 209.5,280.5 209.5,278.5C 211.833,275.5 214.5,272.833 217.5,270.5C 219.5,270.5 220.5,269.5 220.5,267.5C 222.833,264.5 225.5,261.833 228.5,259.5C 230.027,259.573 231.027,258.906 231.5,257.5C 232.363,256.06 232.363,254.726 231.5,253.5C 227.812,250.479 224.479,247.146 221.5,243.5C 221.5,241.5 220.5,240.5 218.5,240.5C 210.5,233.167 202.833,225.5 195.5,217.5C 195.5,215.5 194.5,214.5 192.5,214.5C 190.037,212.539 187.703,210.372 185.5,208C 157.5,207.667 129.5,207.333 101.5,207C 94.1667,199.667 86.8333,192.333 79.5,185C 118.023,183.34 156.69,183.007 195.5,184C 199.395,188.392 203.395,192.559 207.5,196.5 Z"/></g>
<g><path style="opacity:1" fill="#9e3869" d="M 298.5,189.5 C 298.5,191.5 297.5,192.5 295.5,192.5C 296.167,191.167 297.167,190.167 298.5,189.5 Z"/></g>
<g><path style="opacity:1" fill="#a33c64" d="M 294.5,194.5 C 294.027,195.906 293.027,196.573 291.5,196.5C 291.973,195.094 292.973,194.427 294.5,194.5 Z"/></g>
<g><path style="opacity:0.161" fill="#31159a" d="M 207.5,196.5 C 208.5,196.833 209.167,197.5 209.5,198.5C 208.167,198.5 207.5,197.833 207.5,196.5 Z"/></g>
<g><path style="opacity:0.294" fill="#471d8e" d="M 291.5,196.5 C 291.5,197.833 290.833,198.5 289.5,198.5C 289.833,197.5 290.5,196.833 291.5,196.5 Z"/></g>
<g><path style="opacity:0.165" fill="#31159a" d="M 211.5,200.5 C 212.5,200.833 213.167,201.5 213.5,202.5C 212.167,202.5 211.5,201.833 211.5,200.5 Z"/></g>
<g><path style="opacity:1" fill="#9e3869" d="M 283.5,204.5 C 283.5,206.5 282.5,207.5 280.5,207.5C 281.167,206.167 282.167,205.167 283.5,204.5 Z"/></g>
<g><path style="opacity:0.196" fill="#5e267e" d="M 247.5,206.5 C 248.391,207.11 249.391,207.443 250.5,207.5C 249.053,208.885 248.053,208.552 247.5,206.5 Z"/></g>
<g><path style="opacity:0.031" fill="#3f1895" d="M 313.5,207.5 C 313.167,208.5 312.5,209.167 311.5,209.5C 311.5,208.167 312.167,207.5 313.5,207.5 Z"/></g>
<g><path style="opacity:0.035" fill="#3f1895" d="M 309.5,211.5 C 309.167,212.5 308.5,213.167 307.5,213.5C 307.5,212.167 308.167,211.5 309.5,211.5 Z"/></g>
<g><path style="opacity:0.537" fill="#762a76" d="M 192.5,214.5 C 194.5,214.5 195.5,215.5 195.5,217.5C 194.167,216.833 193.167,215.833 192.5,214.5 Z"/></g>
<g><path style="opacity:1" fill="#9e3869" d="M 272.5,215.5 C 272.5,217.5 271.5,218.5 269.5,218.5C 270.167,217.167 271.167,216.167 272.5,215.5 Z"/></g>
<g><path style="opacity:0.043" fill="#3f1895" d="M 302.5,218.5 C 302.167,219.5 301.5,220.167 300.5,220.5C 300.5,219.167 301.167,218.5 302.5,218.5 Z"/></g>
<g><path style="opacity:0.165" fill="#31159a" d="M 229.5,218.5 C 230.5,218.833 231.167,219.5 231.5,220.5C 230.167,220.5 229.5,219.833 229.5,218.5 Z"/></g>
<g><path style="opacity:0.043" fill="#3f1895" d="M 298.5,222.5 C 298.167,223.5 297.5,224.167 296.5,224.5C 296.5,223.167 297.167,222.5 298.5,222.5 Z"/></g>
<g><path style="opacity:0.165" fill="#31159a" d="M 233.5,222.5 C 234.5,222.833 235.167,223.5 235.5,224.5C 234.167,224.5 233.5,223.833 233.5,222.5 Z"/></g>
<g><path style="opacity:0.039" fill="#3f1895" d="M 294.5,226.5 C 294.167,227.5 293.5,228.167 292.5,228.5C 292.5,227.167 293.167,226.5 294.5,226.5 Z"/></g>
<g><path style="opacity:0.165" fill="#31159a" d="M 237.5,226.5 C 238.5,226.833 239.167,227.5 239.5,228.5C 238.167,228.5 237.5,227.833 237.5,226.5 Z"/></g>
<g><path style="opacity:1" fill="#e8662b" d="M 124.5,227.5 C 141.837,227.333 159.17,227.5 176.5,228C 183.833,235.333 191.167,242.667 198.5,250C 180.984,251.651 163.317,251.984 145.5,251C 138.167,243.667 130.833,236.333 123.5,229C 124.056,228.617 124.389,228.117 124.5,227.5 Z"/></g>
<g><path style="opacity:1" fill="#9e3869" d="M 261.5,226.5 C 261.5,228.5 260.5,229.5 258.5,229.5C 259.167,228.167 260.167,227.167 261.5,226.5 Z"/></g>
<g><path style="opacity:1" fill="#e8662b" d="M 322.5,227.5 C 340.32,227.015 357.987,227.515 375.5,229C 368.167,236.333 360.833,243.667 353.5,251C 336.167,251.667 318.833,251.667 301.5,251C 301.167,250.667 300.833,250.333 300.5,250C 308.036,242.632 315.369,235.132 322.5,227.5 Z"/></g>
<g><path style="opacity:0.035" fill="#3f1895" d="M 291.5,229.5 C 291.167,230.5 290.5,231.167 289.5,231.5C 289.5,230.167 290.167,229.5 291.5,229.5 Z"/></g>
<g><path style="opacity:1" fill="#a33c64" d="M 257.5,231.5 C 257.027,232.906 256.027,233.573 254.5,233.5C 254.973,232.094 255.973,231.427 257.5,231.5 Z"/></g>
<g><path style="opacity:0.031" fill="#3f1895" d="M 287.5,233.5 C 287.167,234.5 286.5,235.167 285.5,235.5C 285.5,234.167 286.167,233.5 287.5,233.5 Z"/></g>
<g><path style="opacity:0.031" fill="#3f1895" d="M 283.5,237.5 C 283.167,238.5 282.5,239.167 281.5,239.5C 281.5,238.167 282.167,237.5 283.5,237.5 Z"/></g>
<g><path style="opacity:0.255" fill="#491e8c" d="M 250.5,237.5 C 250.289,239.424 249.623,239.757 248.5,238.5C 249.167,238.167 249.833,237.833 250.5,237.5 Z"/></g>
<g><path style="opacity:0.522" fill="#762a76" d="M 218.5,240.5 C 220.5,240.5 221.5,241.5 221.5,243.5C 220.167,242.833 219.167,241.833 218.5,240.5 Z"/></g>
<g><path style="opacity:0.039" fill="#3f1895" d="M 276.5,244.5 C 276.167,245.5 275.5,246.167 274.5,246.5C 274.5,245.167 275.167,244.5 276.5,244.5 Z"/></g>
<g><path style="opacity:0.035" fill="#3f1895" d="M 272.5,248.5 C 272.167,249.5 271.5,250.167 270.5,250.5C 270.5,249.167 271.167,248.5 272.5,248.5 Z"/></g>
<g><path style="opacity:1" fill="#a33c64" d="M 231.5,257.5 C 231.027,258.906 230.027,259.573 228.5,259.5C 228.973,258.094 229.973,257.427 231.5,257.5 Z"/></g>
<g><path style="opacity:0.173" fill="#31159a" d="M 274.5,263.5 C 275.5,263.833 276.167,264.5 276.5,265.5C 275.167,265.5 274.5,264.833 274.5,263.5 Z"/></g>
<g><path style="opacity:0.169" fill="#31159a" d="M 278.5,267.5 C 279.5,267.833 280.167,268.5 280.5,269.5C 279.167,269.5 278.5,268.833 278.5,267.5 Z"/></g>
<g><path style="opacity:1" fill="#9e3869" d="M 220.5,267.5 C 220.5,269.5 219.5,270.5 217.5,270.5C 218.167,269.167 219.167,268.167 220.5,267.5 Z"/></g>
<g><path style="opacity:0.173" fill="#31159a" d="M 281.5,270.5 C 282.5,270.833 283.167,271.5 283.5,272.5C 282.167,272.5 281.5,271.833 281.5,270.5 Z"/></g>
<g><path style="opacity:0.02" fill="#3f1895" d="M 246.5,274.5 C 246.167,275.5 245.5,276.167 244.5,276.5C 244.5,275.167 245.167,274.5 246.5,274.5 Z"/></g>
<g><path style="opacity:0.169" fill="#31149b" d="M 285.5,274.5 C 286.5,274.833 287.167,275.5 287.5,276.5C 286.167,276.5 285.5,275.833 285.5,274.5 Z"/></g>
<g><path style="opacity:0.533" fill="#762a76" d="M 255.5,277.5 C 257.5,277.5 258.5,278.5 258.5,280.5C 257.167,279.833 256.167,278.833 255.5,277.5 Z"/></g>
<g><path style="opacity:1" fill="#9e3869" d="M 209.5,278.5 C 209.5,280.5 208.5,281.5 206.5,281.5C 207.167,280.167 208.167,279.167 209.5,278.5 Z"/></g>
<g><path style="opacity:0.039" fill="#3f1895" d="M 239.5,281.5 C 239.167,282.5 238.5,283.167 237.5,283.5C 237.5,282.167 238.167,281.5 239.5,281.5 Z"/></g>
<g><path style="opacity:0.043" fill="#3f1895" d="M 235.5,285.5 C 235.167,286.5 234.5,287.167 233.5,287.5C 233.5,286.167 234.167,285.5 235.5,285.5 Z"/></g>
<g><path style="opacity:0.043" fill="#3f1895" d="M 231.5,289.5 C 231.167,290.5 230.5,291.167 229.5,291.5C 229.5,290.167 230.167,289.5 231.5,289.5 Z"/></g>
<g><path style="opacity:1" fill="#9e3869" d="M 198.5,289.5 C 198.5,291.5 197.5,292.5 195.5,292.5C 196.167,291.167 197.167,290.167 198.5,289.5 Z"/></g>
<g><path style="opacity:0.047" fill="#3f1895" d="M 228.5,292.5 C 228.167,293.5 227.5,294.167 226.5,294.5C 226.5,293.167 227.167,292.5 228.5,292.5 Z"/></g>
<g><path style="opacity:0.043" fill="#3f1895" d="M 224.5,296.5 C 224.167,297.5 223.5,298.167 222.5,298.5C 222.5,297.167 223.167,296.5 224.5,296.5 Z"/></g>
<g><path style="opacity:0.035" fill="#3f1895" d="M 220.5,300.5 C 220.167,301.5 219.5,302.167 218.5,302.5C 218.5,301.167 219.167,300.5 220.5,300.5 Z"/></g>
<g><path style="opacity:1" fill="#eb6926" d="M 248.5,301.5 C 253.072,304.563 257.239,308.23 261,312.5C 261.667,342.833 261.667,373.167 261,403.5C 257.288,407.548 253.288,411.215 249,414.5C 245.112,411.061 241.446,407.395 238,403.5C 237.333,373.167 237.333,342.833 238,312.5C 241.704,308.964 245.204,305.298 248.5,301.5 Z"/></g>
<g><path style="opacity:0.032" fill="#33139d" d="M 281.5,303.5 C 282.496,303.414 283.329,303.748 284,304.5C 284.5,329.164 284.667,353.831 284.5,378.5C 283.668,354.337 283.168,330.003 283,305.5C 282.283,304.956 281.783,304.289 281.5,303.5 Z"/></g>
</svg>
