<?xml version="1.0" encoding="UTF-8" standalone="no"?>
<svg
   xmlns:dc="http://purl.org/dc/elements/1.1/"
   xmlns:cc="http://creativecommons.org/ns#"
   xmlns:rdf="http://www.w3.org/1999/02/22-rdf-syntax-ns#"
   xmlns:svg="http://www.w3.org/2000/svg"
   xmlns="http://www.w3.org/2000/svg"
   viewBox="0 0 1365.3333 1365.3333"
   height="1365.3333"
   width="1365.3333"
   xml:space="preserve"
   id="svg2"
   version="1.1"><metadata
     id="metadata8"><rdf:RDF><cc:Work
         rdf:about=""><dc:format>image/svg+xml</dc:format><dc:type
           rdf:resource="http://purl.org/dc/dcmitype/StillImage" /></cc:Work></rdf:RDF></metadata><defs
     id="defs6"><clipPath
       id="clipPath24"
       clipPathUnits="userSpaceOnUse"><path
         id="path22"
         d="m 73.673,735.972 45.123,-45.123 h 71.692 163.096 l -45.137,45.123 z" /></clipPath><clipPath
       id="clipPath60"
       clipPathUnits="userSpaceOnUse"><path
         id="path58"
         d="m 254.17,555.477 45.123,-45.125 h 107.171 l -45.125,45.125 z" /></clipPath><clipPath
       id="clipPath96"
       clipPathUnits="userSpaceOnUse"><path
         id="path94"
         d="M 715.337,735.972 670.2,690.849 h 42.886 103.183 88.72 l 45.123,45.123 z" /></clipPath><clipPath
       id="clipPath132"
       clipPathUnits="userSpaceOnUse"><path
         id="path130"
         d="m 662.446,555.477 -45.125,-45.125 h 95.765 11.406 l 45.123,45.125 z" /></clipPath><clipPath
       id="clipPath168"
       clipPathUnits="userSpaceOnUse"><path
         id="path166"
         d="M 625.077,645.724 511.892,532.539 398.707,645.724 H 163.922 l 45.105,-45.123 h 170.996 l 99.966,-99.965 -85.49,-85.489 V 291.294 l 45.125,-44.077 v 149.245 l 72.268,72.27 72.268,-72.27 V 247.217 l 45.125,44.077 v 123.853 l -85.489,85.489 99.965,99.965 h 170.996 l 45.107,45.123 z" /></clipPath><clipPath
       id="clipPath204"
       clipPathUnits="userSpaceOnUse"><path
         id="path202"
         d="m 501.018,737.169 h -52.943 l -38.483,-38.492 38.483,-38.492 h 52.943 10.874 l -38.491,38.492 38.491,38.492 38.492,-38.492 -38.492,-38.492 h 63.817 l 38.484,38.492 -38.484,38.492 z" /></clipPath><clipPath
       id="clipPath236"
       clipPathUnits="userSpaceOnUse"><path
         id="path234"
         d="M 409.592,698.677 511.892,596.354 614.193,698.677 511.892,801 Z m 63.809,0 38.491,38.492 38.492,-38.492 -38.492,-38.492 z" /></clipPath><clipPath
       id="clipPath272"
       clipPathUnits="userSpaceOnUse"><path
         id="path270"
         d="M 511.891,404.924 489.33,382.361 V 197.055 l 22.562,-22.423 22.563,22.423 v 185.306 l -22.562,22.563 z" /></clipPath></defs><g
     transform="matrix(1.3333333,0,0,-1.3333333,0,1365.3333)"
     id="g10"><path
       id="path12"
       style="fill:#2a12a0;fill-opacity:1;fill-rule:nonzero;stroke:none"
       d="M 0,0 H 1024 V 1024 H 0 Z" /><g
       transform="translate(308.4475,735.9726)"
       id="g14"><path
         id="path16"
         style="fill:#f97306;fill-opacity:1;fill-rule:nonzero;stroke:none"
         d="m 0,0 h -234.775 l 45.124,-45.123 H 45.137 Z" /></g><g
       id="g18"><g
         clip-path="url(#clipPath24)"
         id="g20"><g
           id="g26"><g
             transform="scale(1,-1)"
             id="g28"><g
               id="g30"><path
                 id="path32"
                 style="fill:#f97306;fill-opacity:1;fill-rule:nonzero;stroke:none"
                 d="m 73.6729,-690.84901 c 0,-15.04102 0,-30.08252 0,-45.12353 4.066408,0 8.133304,0 12.2002,0 0,15.04101 0,30.08251 0,45.12353 -4.066896,0 -8.133792,0 -12.2002,0 z" /><path
                 id="path34"
                 style="fill:#f97306;fill-opacity:1;fill-rule:nonzero;stroke:none"
                 d="m 85.8731,-690.84901 c 0,-15.04102 0,-30.08252 0,-45.12353 47.49416,0 72.2681,0 104.61479,0 0,15.04101 0,30.08251 0,45.12353 -32.34669,0 -57.12063,0 -104.61479,0 z" /><path
                 id="path36"
                 style="fill:#f97306;fill-opacity:1;fill-rule:nonzero;stroke:none"
                 d="m 190.48789,-690.84901 c 0,-15.04102 0,-30.08252 0,-45.12353 131.09185,0 160.31501,0 223.49326,0 0,15.04101 0,30.08251 0,45.12353 -63.17825,0 -92.40141,0 -223.49326,0 z" /><path
                 id="path38"
                 style="fill:#f97306;fill-opacity:1;fill-rule:nonzero;stroke:none"
                 d="m 413.98115,-690.84901 c 0,-15.04102 0,-30.08252 0,-45.12353 38.71974,0 59.96584,0 87.03763,0 0,15.04101 0,30.08251 0,45.12353 -27.07179,0 -48.31789,0 -87.03763,0 z" /><path
                 id="path40"
                 style="fill:#f97306;fill-opacity:1;fill-rule:nonzero;stroke:none"
                 d="m 501.01878,-690.84901 c 0,-15.04102 0,-30.08252 0,-45.12353 30.1338,0 58.90823,0 91.75785,0 0,15.04101 0,30.08251 0,45.12353 -32.84962,0 -61.62405,0 -91.75785,0 z" /><path
                 id="path42"
                 style="fill:#f97306;fill-opacity:1;fill-rule:nonzero;stroke:none"
                 d="m 592.77663,-690.84901 c 0,-15.04102 0,-30.08252 0,-45.12353 33.39064,0 46.64553,0 120.30962,0 0,15.04101 0,30.08251 0,45.12353 -73.66409,0 -86.91898,0 -120.30962,0 z" /><path
                 id="path44"
                 style="fill:#f97306;fill-opacity:1;fill-rule:nonzero;stroke:none"
                 d="m 713.08625,-690.84901 c 0,-15.04102 0,-30.08252 0,-45.12353 36.76564,0 69.2637,0 103.18364,0 0,15.04101 0,30.08251 0,45.12353 -33.91994,0 -66.418,0 -103.18364,0 z" /><path
                 id="path46"
                 style="fill:#f97306;fill-opacity:1;fill-rule:nonzero;stroke:none"
                 d="m 816.26989,-690.84901 c 0,-15.04102 0,-30.08252 0,-45.12353 30.88575,0 61.53323,0 92.2598,0 0,15.04101 0,30.08251 0,45.12353 -30.72657,0 -61.37405,0 -92.2598,0 z" /><path
                 id="path48"
                 style="fill:#f97306;fill-opacity:1;fill-rule:nonzero;stroke:none"
                 d="m 908.52969,-690.84901 c 0,-15.04102 0,-30.08252 0,-45.12353 14.69044,0 29.38087,0 44.07131,0 0,15.04101 0,30.08251 0,45.12353 -14.69044,0 -29.38087,0 -44.07131,0 z" /></g></g></g></g></g><g
       transform="translate(361.3391,555.4773)"
       id="g50"><path
         id="path52"
         style="fill:#f97306;fill-opacity:1;fill-rule:nonzero;stroke:none"
         d="m 0,0 h -107.17 l 45.124,-45.125 H 45.125 Z" /></g><g
       id="g54"><g
         clip-path="url(#clipPath60)"
         id="g56"><g
           id="g62"><g
             transform="scale(1,-1)"
             id="g64"><g
               id="g66"><path
                 id="path68"
                 style="fill:#f97306;fill-opacity:1;fill-rule:nonzero;stroke:none"
                 d="m 80.9766,-510.35231 c 0,-15.04101 0,-30.08202 0,-45.12449 1.631348,0 3.26465,0 4.896486,0 0,15.04247 0,30.08348 0,45.12449 -1.631836,0 -3.265138,0 -4.896486,0 z" /><path
                 id="path70"
                 style="fill:#f97306;fill-opacity:1;fill-rule:nonzero;stroke:none"
                 d="m 85.873086,-510.35231 c 0,-15.04101 0,-30.08202 0,-45.12449 47.494164,0 72.268094,0 104.614794,0 0,15.04247 0,30.08348 0,45.12449 -32.3467,0 -57.12063,0 -104.614794,0 z" /><path
                 id="path72"
                 style="fill:#f97306;fill-opacity:1;fill-rule:nonzero;stroke:none"
                 d="m 190.48788,-510.35231 c 0,-15.04101 0,-30.08202 0,-45.12449 131.09185,0 160.31501,0 223.49326,0 0,15.04247 0,30.08348 0,45.12449 -63.17825,0 -92.40141,0 -223.49326,0 z" /><path
                 id="path74"
                 style="fill:#f97306;fill-opacity:1;fill-rule:nonzero;stroke:none"
                 d="m 413.98114,-510.35231 c 0,-15.04101 0,-30.08202 0,-45.12449 38.71974,0 59.96584,0 87.03763,0 0,15.04247 0,30.08348 0,45.12449 -27.07179,0 -48.31789,0 -87.03763,0 z" /><path
                 id="path76"
                 style="fill:#f97306;fill-opacity:1;fill-rule:nonzero;stroke:none"
                 d="m 501.01877,-510.35231 c 0,-15.04101 0,-30.08202 0,-45.12449 30.13381,0 58.90823,0 91.75786,0 0,15.04247 0,30.08348 0,45.12449 -32.84963,0 -61.62405,0 -91.75786,0 z" /><path
                 id="path78"
                 style="fill:#f97306;fill-opacity:1;fill-rule:nonzero;stroke:none"
                 d="m 592.77663,-510.35231 c 0,-15.04101 0,-30.08202 0,-45.12449 33.39064,0 46.64552,0 120.30962,0 0,15.04247 0,30.08348 0,45.12449 -73.6641,0 -86.91898,0 -120.30962,0 z" /><path
                 id="path80"
                 style="fill:#f97306;fill-opacity:1;fill-rule:nonzero;stroke:none"
                 d="m 713.08625,-510.35231 c 0,-15.04101 0,-30.08202 0,-45.12449 36.76564,0 69.2637,0 103.18364,0 0,15.04247 0,30.08348 0,45.12449 -33.91994,0 -66.418,0 -103.18364,0 z" /><path
                 id="path82"
                 style="fill:#f97306;fill-opacity:1;fill-rule:nonzero;stroke:none"
                 d="m 816.26989,-510.35231 c 0,-15.04101 0,-30.08202 0,-45.12449 30.88575,0 61.53323,0 92.2598,0 0,15.04247 0,30.08348 0,45.12449 -30.72657,0 -61.37405,0 -92.2598,0 z" /><path
                 id="path84"
                 style="fill:#f97306;fill-opacity:1;fill-rule:nonzero;stroke:none"
                 d="m 908.52969,-510.35231 c 0,-15.04101 0,-30.08202 0,-45.12449 14.69044,0 29.38087,0 44.07131,0 0,15.04247 0,30.08348 0,45.12449 -14.69044,0 -29.38087,0 -44.07131,0 z" /></g></g></g></g></g><g
       transform="translate(715.3372,735.9726)"
       id="g86"><path
         id="path88"
         style="fill:#f97306;fill-opacity:1;fill-rule:nonzero;stroke:none"
         d="M 0,0 -45.137,-45.123 H 189.651 L 234.775,0 Z" /></g><g
       id="g90"><g
         clip-path="url(#clipPath96)"
         id="g92"><g
           id="g98"><g
             transform="scale(1,-1)"
             id="g100"><g
               id="g102"><path
                 id="path104"
                 style="fill:#f97306;fill-opacity:1;fill-rule:nonzero;stroke:none"
                 d="m 80.9766,-690.84881 c 0,-15.041 0,-30.0825 0,-45.12351 1.631348,0 3.26465,0 4.896486,0 0,15.04101 0,30.08251 0,45.12351 -1.631836,0 -3.265138,0 -4.896486,0 z" /><path
                 id="path106"
                 style="fill:#f97306;fill-opacity:1;fill-rule:nonzero;stroke:none"
                 d="m 85.873086,-690.84881 c 0,-15.041 0,-30.0825 0,-45.12351 47.494164,0 72.268094,0 104.614794,0 0,15.04101 0,30.08251 0,45.12351 -32.3467,0 -57.12063,0 -104.614794,0 z" /><path
                 id="path108"
                 style="fill:#f97306;fill-opacity:1;fill-rule:nonzero;stroke:none"
                 d="m 190.48788,-690.84881 c 0,-15.041 0,-30.0825 0,-45.12351 131.09185,0 160.31501,0 223.49326,0 0,15.04101 0,30.08251 0,45.12351 -63.17825,0 -92.40141,0 -223.49326,0 z" /><path
                 id="path110"
                 style="fill:#f97306;fill-opacity:1;fill-rule:nonzero;stroke:none"
                 d="m 413.98114,-690.84881 c 0,-15.041 0,-30.0825 0,-45.12351 38.71974,0 59.96584,0 87.03763,0 0,15.04101 0,30.08251 0,45.12351 -27.07179,0 -48.31789,0 -87.03763,0 z" /><path
                 id="path112"
                 style="fill:#f97306;fill-opacity:1;fill-rule:nonzero;stroke:none"
                 d="m 501.01877,-690.84881 c 0,-15.041 0,-30.0825 0,-45.12351 30.13381,0 58.90823,0 91.75786,0 0,15.04101 0,30.08251 0,45.12351 -32.84963,0 -61.62405,0 -91.75786,0 z" /><path
                 id="path114"
                 style="fill:#f97306;fill-opacity:1;fill-rule:nonzero;stroke:none"
                 d="m 592.77663,-690.84881 c 0,-15.041 0,-30.0825 0,-45.12351 33.39064,0 46.64552,0 120.30962,0 0,15.04101 0,30.08251 0,45.12351 -73.6641,0 -86.91898,0 -120.30962,0 z" /><path
                 id="path116"
                 style="fill:#f97306;fill-opacity:1;fill-rule:nonzero;stroke:none"
                 d="m 713.08625,-690.84881 c 0,-15.041 0,-30.0825 0,-45.12351 36.76564,0 69.2637,0 103.18364,0 0,15.04101 0,30.08251 0,45.12351 -33.91994,0 -66.418,0 -103.18364,0 z" /><path
                 id="path118"
                 style="fill:#f97306;fill-opacity:1;fill-rule:nonzero;stroke:none"
                 d="m 816.26989,-690.84881 c 0,-15.041 0,-30.0825 0,-45.12351 30.88575,0 61.53323,0 92.2598,0 0,15.04101 0,30.08251 0,45.12351 -30.72657,0 -61.37405,0 -92.2598,0 z" /><path
                 id="path120"
                 style="fill:#f97306;fill-opacity:1;fill-rule:nonzero;stroke:none"
                 d="m 908.52969,-690.84881 c 0,-15.041 0,-30.0825 0,-45.12351 14.69044,0 29.38087,0 44.07131,0 0,15.04101 0,30.08251 0,45.12351 -14.69044,0 -29.38087,0 -44.07131,0 z" /></g></g></g></g></g><g
       transform="translate(617.3207,510.3524)"
       id="g122"><path
         id="path124"
         style="fill:#f97306;fill-opacity:1;fill-rule:nonzero;stroke:none"
         d="m 0,0 h 107.171 l 45.123,45.125 H 45.125 Z" /></g><g
       id="g126"><g
         clip-path="url(#clipPath132)"
         id="g128"><g
           id="g134"><g
             transform="scale(1,-1)"
             id="g136"><g
               id="g138"><path
                 id="path140"
                 style="fill:#f97306;fill-opacity:1;fill-rule:nonzero;stroke:none"
                 d="m 80.9766,-510.35231 c 0,-15.04101 0,-30.08202 0,-45.12449 1.631348,0 3.26465,0 4.896486,0 0,15.04247 0,30.08348 0,45.12449 -1.631836,0 -3.265138,0 -4.896486,0 z" /><path
                 id="path142"
                 style="fill:#f97306;fill-opacity:1;fill-rule:nonzero;stroke:none"
                 d="m 85.873086,-510.35231 c 0,-15.04101 0,-30.08202 0,-45.12449 47.494164,0 72.268094,0 104.614794,0 0,15.04247 0,30.08348 0,45.12449 -32.3467,0 -57.12063,0 -104.614794,0 z" /><path
                 id="path144"
                 style="fill:#f97306;fill-opacity:1;fill-rule:nonzero;stroke:none"
                 d="m 190.48788,-510.35231 c 0,-15.04101 0,-30.08202 0,-45.12449 131.09185,0 160.31501,0 223.49326,0 0,15.04247 0,30.08348 0,45.12449 -63.17825,0 -92.40141,0 -223.49326,0 z" /><path
                 id="path146"
                 style="fill:#f97306;fill-opacity:1;fill-rule:nonzero;stroke:none"
                 d="m 413.98114,-510.35231 c 0,-15.04101 0,-30.08202 0,-45.12449 38.71974,0 59.96584,0 87.03763,0 0,15.04247 0,30.08348 0,45.12449 -27.07179,0 -48.31789,0 -87.03763,0 z" /><path
                 id="path148"
                 style="fill:#f97306;fill-opacity:1;fill-rule:nonzero;stroke:none"
                 d="m 501.01877,-510.35231 c 0,-15.04101 0,-30.08202 0,-45.12449 30.13381,0 58.90823,0 91.75786,0 0,15.04247 0,30.08348 0,45.12449 -32.84963,0 -61.62405,0 -91.75786,0 z" /><path
                 id="path150"
                 style="fill:#f97306;fill-opacity:1;fill-rule:nonzero;stroke:none"
                 d="m 592.77663,-510.35231 c 0,-15.04101 0,-30.08202 0,-45.12449 33.39064,0 46.64552,0 120.30962,0 0,15.04247 0,30.08348 0,45.12449 -73.6641,0 -86.91898,0 -120.30962,0 z" /><path
                 id="path152"
                 style="fill:#f97306;fill-opacity:1;fill-rule:nonzero;stroke:none"
                 d="m 713.08625,-510.35231 c 0,-15.04101 0,-30.08202 0,-45.12449 36.76564,0 69.2637,0 103.18364,0 0,15.04247 0,30.08348 0,45.12449 -33.91994,0 -66.418,0 -103.18364,0 z" /><path
                 id="path154"
                 style="fill:#f97306;fill-opacity:1;fill-rule:nonzero;stroke:none"
                 d="m 816.26989,-510.35231 c 0,-15.04101 0,-30.08202 0,-45.12449 30.88575,0 61.53323,0 92.2598,0 0,15.04247 0,30.08348 0,45.12449 -30.72657,0 -61.37405,0 -92.2598,0 z" /><path
                 id="path156"
                 style="fill:#f97306;fill-opacity:1;fill-rule:nonzero;stroke:none"
                 d="m 908.52969,-510.35231 c 0,-15.04101 0,-30.08202 0,-45.12449 14.69044,0 29.38087,0 44.07131,0 0,15.04247 0,30.08348 0,45.12449 -14.69044,0 -29.38087,0 -44.07131,0 z" /></g></g></g></g></g><g
       transform="translate(511.8924,532.5394)"
       id="g158"><path
         id="path160"
         style="fill:#f97306;fill-opacity:1;fill-rule:nonzero;stroke:none"
         d="m 0,0 -113.185,113.185 h -234.786 l 45.106,-45.124 h 170.996 l 99.965,-99.965 -85.489,-85.489 v -123.853 l 45.125,-44.076 v 149.245 L 0,-63.808 72.268,-136.077 v -149.245 l 45.125,44.076 v 123.853 l -85.489,85.489 99.965,99.965 h 170.996 l 45.106,45.124 H 113.185 Z" /></g><g
       id="g162"><g
         clip-path="url(#clipPath168)"
         id="g164"><g
           id="g170"><g
             transform="scale(1,-1)"
             id="g172"><g
               id="g174"><path
                 id="path176"
                 style="fill:#f97306;fill-opacity:1;fill-rule:nonzero;stroke:none"
                 d="m 80.9766,-247.21767 c 0,-132.83588 0,-265.67175 0,-398.50616 1.631348,0 3.26465,0 4.896486,0 0,132.83441 0,265.67028 0,398.50616 -1.631836,0 -3.265138,0 -4.896486,0 z" /><path
                 id="path178"
                 style="fill:#f97306;fill-opacity:1;fill-rule:nonzero;stroke:none"
                 d="m 85.873086,-247.21767 c 0,-132.83588 0,-265.67175 0,-398.50616 47.494164,0 72.268094,0 104.614794,0 0,132.83441 0,265.67028 0,398.50616 -32.3467,0 -57.12063,0 -104.614794,0 z" /><path
                 id="path180"
                 style="fill:#f97306;fill-opacity:1;fill-rule:nonzero;stroke:none"
                 d="m 190.48788,-247.21767 c 0,-132.83588 0,-265.67175 0,-398.50616 131.09185,0 160.31501,0 223.49326,0 0,132.83441 0,265.67028 0,398.50616 -63.17825,0 -92.40141,0 -223.49326,0 z" /><path
                 id="path182"
                 style="fill:#f97306;fill-opacity:1;fill-rule:nonzero;stroke:none"
                 d="m 413.98114,-247.21767 c 0,-132.83588 0,-265.67175 0,-398.50616 38.71974,0 59.96584,0 87.03763,0 0,132.83441 0,265.67028 0,398.50616 -27.07179,0 -48.31789,0 -87.03763,0 z" /><path
                 id="path184"
                 style="fill:#f97306;fill-opacity:1;fill-rule:nonzero;stroke:none"
                 d="m 501.01877,-247.21767 c 0,-132.83588 0,-265.67175 0,-398.50616 30.13381,0 58.90823,0 91.75786,0 0,132.83441 0,265.67028 0,398.50616 -32.84963,0 -61.62405,0 -91.75786,0 z" /><path
                 id="path186"
                 style="fill:#f97306;fill-opacity:1;fill-rule:nonzero;stroke:none"
                 d="m 592.77663,-247.21767 c 0,-132.83588 0,-265.67175 0,-398.50616 33.39064,0 46.64552,0 120.30962,0 0,132.83441 0,265.67028 0,398.50616 -73.6641,0 -86.91898,0 -120.30962,0 z" /><path
                 id="path188"
                 style="fill:#f97306;fill-opacity:1;fill-rule:nonzero;stroke:none"
                 d="m 713.08625,-247.21767 c 0,-132.83588 0,-265.67175 0,-398.50616 36.76564,0 69.2637,0 103.18364,0 0,132.83441 0,265.67028 0,398.50616 -33.91994,0 -66.418,0 -103.18364,0 z" /><path
                 id="path190"
                 style="fill:#f97306;fill-opacity:1;fill-rule:nonzero;stroke:none"
                 d="m 816.26989,-247.21767 c 0,-132.83588 0,-265.67175 0,-398.50616 30.88575,0 61.53323,0 92.2598,0 0,132.83441 0,265.67028 0,398.50616 -30.72657,0 -61.37405,0 -92.2598,0 z" /><path
                 id="path192"
                 style="fill:#f97306;fill-opacity:1;fill-rule:nonzero;stroke:none"
                 d="m 908.52969,-247.21767 c 0,-132.83588 0,-265.67175 0,-398.50616 14.69044,0 29.38087,0 44.07131,0 0,132.83441 0,265.67028 0,398.50616 -14.69044,0 -29.38087,0 -44.07131,0 z" /></g></g></g></g></g><g
       transform="translate(473.4006,698.6772)"
       id="g194"><path
         id="path196"
         style="fill:#f97306;fill-opacity:1;fill-rule:nonzero;stroke:none"
         d="M 0,0 38.492,38.492 76.983,0 38.492,-38.492 Z M 140.793,0 38.492,102.323 -63.809,0 38.492,-102.323 Z" /></g><g
       id="g198"><g
         clip-path="url(#clipPath204)"
         id="g200"><g
           id="g206"><g
             transform="scale(1,-1)"
             id="g208"><g
               id="g210"><path
                 id="path212"
                 style="fill:#f97306;fill-opacity:1;fill-rule:nonzero;stroke:none"
                 d="m 80.9766,-660.18525 c 0,-25.66063 0,-51.32126 0,-76.98336 1.631348,0 3.26465,0 4.896486,0 0,25.6621 0,51.32273 0,76.98336 -1.631836,0 -3.265138,0 -4.896486,0 z" /><path
                 id="path214"
                 style="fill:#f97306;fill-opacity:1;fill-rule:nonzero;stroke:none"
                 d="m 85.873086,-660.18525 c 0,-25.66063 0,-51.32126 0,-76.98336 47.494164,0 72.268094,0 104.614794,0 0,25.6621 0,51.32273 0,76.98336 -32.3467,0 -57.12063,0 -104.614794,0 z" /><path
                 id="path216"
                 style="fill:#f97306;fill-opacity:1;fill-rule:nonzero;stroke:none"
                 d="m 190.48788,-660.18525 c 0,-25.66063 0,-51.32126 0,-76.98336 131.09185,0 160.31501,0 223.49326,0 0,25.6621 0,51.32273 0,76.98336 -63.17825,0 -92.40141,0 -223.49326,0 z" /><path
                 id="path218"
                 style="fill:#f97306;fill-opacity:1;fill-rule:nonzero;stroke:none"
                 d="m 413.98114,-660.18525 c 0,-25.66063 0,-51.32126 0,-76.98336 38.71974,0 59.96584,0 87.03763,0 0,25.6621 0,51.32273 0,76.98336 -27.07179,0 -48.31789,0 -87.03763,0 z" /><path
                 id="path220"
                 style="fill:#f97306;fill-opacity:1;fill-rule:nonzero;stroke:none"
                 d="m 501.01877,-660.18525 c 0,-25.66063 0,-51.32126 0,-76.98336 30.13381,0 58.90823,0 91.75786,0 0,25.6621 0,51.32273 0,76.98336 -32.84963,0 -61.62405,0 -91.75786,0 z" /><path
                 id="path222"
                 style="fill:#f97306;fill-opacity:1;fill-rule:nonzero;stroke:none"
                 d="m 592.77663,-660.18525 c 0,-25.66063 0,-51.32126 0,-76.98336 33.39064,0 46.64552,0 120.30962,0 0,25.6621 0,51.32273 0,76.98336 -73.6641,0 -86.91898,0 -120.30962,0 z" /><path
                 id="path224"
                 style="fill:#f97306;fill-opacity:1;fill-rule:nonzero;stroke:none"
                 d="m 713.08625,-660.18525 c 0,-25.66063 0,-51.32126 0,-76.98336 36.76564,0 69.2637,0 103.18364,0 0,25.6621 0,51.32273 0,76.98336 -33.91994,0 -66.418,0 -103.18364,0 z" /><path
                 id="path226"
                 style="fill:#f97306;fill-opacity:1;fill-rule:nonzero;stroke:none"
                 d="m 816.26989,-660.18525 c 0,-25.66063 0,-51.32126 0,-76.98336 30.88575,0 61.53323,0 92.2598,0 0,25.6621 0,51.32273 0,76.98336 -30.72657,0 -61.37405,0 -92.2598,0 z" /><path
                 id="path228"
                 style="fill:#f97306;fill-opacity:1;fill-rule:nonzero;stroke:none"
                 d="m 908.52969,-660.18525 c 0,-25.66063 0,-51.32126 0,-76.98336 14.69044,0 29.38087,0 44.07131,0 0,25.6621 0,51.32273 0,76.98336 -14.69044,0 -29.38087,0 -44.07131,0 z" /></g></g></g></g></g><g
       id="g230"><g
         clip-path="url(#clipPath236)"
         id="g232"><g
           id="g238"><g
             transform="scale(1,-1)"
             id="g240"><g
               id="g242"><path
                 id="path244"
                 style="fill:#f97306;fill-opacity:1;fill-rule:nonzero;stroke:none"
                 d="m 80.9766,-596.35422 c 0,-68.21481 0,-136.4306 0,-204.64541 1.631348,0 3.26465,0 4.896486,0 0,68.21481 0,136.4306 0,204.64541 -1.631836,0 -3.265138,0 -4.896486,0 z" /><path
                 id="path246"
                 style="fill:#f97306;fill-opacity:1;fill-rule:nonzero;stroke:none"
                 d="m 85.873086,-596.35422 c 0,-68.21481 0,-136.4306 0,-204.64541 47.494164,0 72.268094,0 104.614794,0 0,68.21481 0,136.4306 0,204.64541 -32.3467,0 -57.12063,0 -104.614794,0 z" /><path
                 id="path248"
                 style="fill:#f97306;fill-opacity:1;fill-rule:nonzero;stroke:none"
                 d="m 190.48788,-596.35422 c 0,-68.21481 0,-136.4306 0,-204.64541 131.09185,0 160.31501,0 223.49326,0 0,68.21481 0,136.4306 0,204.64541 -63.17825,0 -92.40141,0 -223.49326,0 z" /><path
                 id="path250"
                 style="fill:#f97306;fill-opacity:1;fill-rule:nonzero;stroke:none"
                 d="m 413.98114,-596.35422 c 0,-68.21481 0,-136.4306 0,-204.64541 38.71974,0 59.96584,0 87.03763,0 0,68.21481 0,136.4306 0,204.64541 -27.07179,0 -48.31789,0 -87.03763,0 z" /><path
                 id="path252"
                 style="fill:#f97306;fill-opacity:1;fill-rule:nonzero;stroke:none"
                 d="m 501.01877,-596.35422 c 0,-68.21481 0,-136.4306 0,-204.64541 30.13381,0 58.90823,0 91.75786,0 0,68.21481 0,136.4306 0,204.64541 -32.84963,0 -61.62405,0 -91.75786,0 z" /><path
                 id="path254"
                 style="fill:#f97306;fill-opacity:1;fill-rule:nonzero;stroke:none"
                 d="m 592.77663,-596.35422 c 0,-68.21481 0,-136.4306 0,-204.64541 33.39064,0 46.64552,0 120.30962,0 0,68.21481 0,136.4306 0,204.64541 -73.6641,0 -86.91898,0 -120.30962,0 z" /><path
                 id="path256"
                 style="fill:#f97306;fill-opacity:1;fill-rule:nonzero;stroke:none"
                 d="m 713.08625,-596.35422 c 0,-68.21481 0,-136.4306 0,-204.64541 36.76564,0 69.2637,0 103.18364,0 0,68.21481 0,136.4306 0,204.64541 -33.91994,0 -66.418,0 -103.18364,0 z" /><path
                 id="path258"
                 style="fill:#f97306;fill-opacity:1;fill-rule:nonzero;stroke:none"
                 d="m 816.26989,-596.35422 c 0,-68.21481 0,-136.4306 0,-204.64541 30.88575,0 61.53323,0 92.2598,0 0,68.21481 0,136.4306 0,204.64541 -30.72657,0 -61.37405,0 -92.2598,0 z" /><path
                 id="path260"
                 style="fill:#f97306;fill-opacity:1;fill-rule:nonzero;stroke:none"
                 d="m 908.52969,-596.35422 c 0,-68.21481 0,-136.4306 0,-204.64541 14.69044,0 29.38087,0 44.07131,0 0,68.21481 0,136.4306 0,204.64541 -14.69044,0 -29.38087,0 -44.07131,0 z" /></g></g></g></g></g><g
       transform="translate(511.8924,404.924)"
       id="g262"><path
         id="path264"
         style="fill:#f97306;fill-opacity:1;fill-rule:nonzero;stroke:none"
         d="M 0,0 -22.562,-22.562 V -207.869 L 0,-230.292 l 22.562,22.423 v 185.307 z" /></g><g
       id="g266"><g
         clip-path="url(#clipPath272)"
         id="g268"><g
           id="g274"><g
             transform="scale(1,-1)"
             id="g276"><g
               id="g278"><path
                 id="path280"
                 style="fill:#f97306;fill-opacity:1;fill-rule:nonzero;stroke:none"
                 d="m 80.9766,-174.63275 c 0,-76.76363 0,-153.52629 0,-230.2909 1.631348,0 3.26465,0 4.896486,0 0,76.76461 0,153.52727 0,230.2909 -1.631836,0 -3.265138,0 -4.896486,0 z" /><path
                 id="path282"
                 style="fill:#f97306;fill-opacity:1;fill-rule:nonzero;stroke:none"
                 d="m 85.873086,-174.63275 c 0,-76.76363 0,-153.52629 0,-230.2909 47.494164,0 72.268094,0 104.614794,0 0,76.76461 0,153.52727 0,230.2909 -32.3467,0 -57.12063,0 -104.614794,0 z" /><path
                 id="path284"
                 style="fill:#f97306;fill-opacity:1;fill-rule:nonzero;stroke:none"
                 d="m 190.48788,-174.63275 c 0,-76.76363 0,-153.52629 0,-230.2909 131.09185,0 160.31501,0 223.49326,0 0,76.76461 0,153.52727 0,230.2909 -63.17825,0 -92.40141,0 -223.49326,0 z" /><path
                 id="path286"
                 style="fill:#f97306;fill-opacity:1;fill-rule:nonzero;stroke:none"
                 d="m 413.98114,-174.63275 c 0,-76.76363 0,-153.52629 0,-230.2909 38.71974,0 59.96584,0 87.03763,0 0,76.76461 0,153.52727 0,230.2909 -27.07179,0 -48.31789,0 -87.03763,0 z" /><path
                 id="path288"
                 style="fill:#f97306;fill-opacity:1;fill-rule:nonzero;stroke:none"
                 d="m 501.01877,-174.63275 c 0,-76.76363 0,-153.52629 0,-230.2909 30.13381,0 58.90823,0 91.75786,0 0,76.76461 0,153.52727 0,230.2909 -32.84963,0 -61.62405,0 -91.75786,0 z" /><path
                 id="path290"
                 style="fill:#f97306;fill-opacity:1;fill-rule:nonzero;stroke:none"
                 d="m 592.77663,-174.63275 c 0,-76.76363 0,-153.52629 0,-230.2909 33.39064,0 46.64552,0 120.30962,0 0,76.76461 0,153.52727 0,230.2909 -73.6641,0 -86.91898,0 -120.30962,0 z" /><path
                 id="path292"
                 style="fill:#f97306;fill-opacity:1;fill-rule:nonzero;stroke:none"
                 d="m 713.08625,-174.63275 c 0,-76.76363 0,-153.52629 0,-230.2909 36.76564,0 69.2637,0 103.18364,0 0,76.76461 0,153.52727 0,230.2909 -33.91994,0 -66.418,0 -103.18364,0 z" /><path
                 id="path294"
                 style="fill:#f97306;fill-opacity:1;fill-rule:nonzero;stroke:none"
                 d="m 816.26989,-174.63275 c 0,-76.76363 0,-153.52629 0,-230.2909 30.88575,0 61.53323,0 92.2598,0 0,76.76461 0,153.52727 0,230.2909 -30.72657,0 -61.37405,0 -92.2598,0 z" /><path
                 id="path296"
                 style="fill:#f97306;fill-opacity:1;fill-rule:nonzero;stroke:none"
                 d="m 908.52969,-174.63275 c 0,-76.76363 0,-153.52629 0,-230.2909 14.69044,0 29.38087,0 44.07131,0 0,76.76461 0,153.52727 0,230.2909 -14.69044,0 -29.38087,0 -44.07131,0 z" /></g></g></g></g></g></g></svg>